# xmcd CD database file
#
# Track frame offsets:
#	150
#	29997
#	61560
#	97207
#	126692
#	167737
#	196570
#	226042
#
# Disc length: 3397 seconds
#
# Revision: 3
# Processed by: cddbd v1.4PL0 Copyright (c) Steve Scherf et al.
# Submitted via: CDex 1.50beta10
#
DISCID=690d4308
DTITLE=Joe Beck - Relaxin'
DYEAR=1983
DGENRE=Jazz
TTITLE0=Isn't She Lovely?
TTITLE1=Lover Man
TTITLE2=Berimbau
TTITLE3=What's New
TTITLE4=Secret Love
TTITLE5=Georgia On My Mind
TTITLE6=Mica's Dream
TTITLE7=Mellowtown
EXTD=YEAR: 1983
EXTT0=
EXTT1=
EXTT2=
EXTT3=
EXTT4=
EXTT5=
EXTT6=
EXTT7=
PLAYORDER=
